<?xml version="1.0"?>
<svg version="1.1" xmlns="http://www.w3.org/2000/svg" width="400px" height="200px" style="border: dashed 2px #aaa"><path fill="#" d="M51.19140625,95.234375q0-0.91796875,0.048828125-1.81640625t0.166015625-1.77734375q0.078125-0.44921875,0.693359375-0.64453125t1.025390625-0.1953125l0.46875,0.0390625q0.56640625,0.078125,1.142578125-0.078125t1.142578125-0.15625q1.328125,0,2.96875,0.29296875t3.076171875,0.99609375t2.412109375,1.845703125t0.9765625,2.822265625t-1.015625,3.134765625t-2.55859375,2.55859375t-3.3203125,1.728515625t-3.26171875,0.625q0.15625,3.76953125,0.439453125,7.48046875t0.966796875,7.421875l0.0390625,0.25390625q0,0.2734375-0.244140625,0.44921875t-0.576171875,0.283203125t-0.673828125,0.146484375t-0.556640625,0.0390625q-0.48828125,0-1.181640625-0.185546875t-0.849609375-0.732421875q-0.44921875-1.71875-0.703125-3.779296875t-0.37109375-4.306640625t-0.166015625-4.521484375t-0.048828125-4.443359375l0-4.39453125q0-0.72265625-0.01953125-1.50390625t-0.01953125-1.58203125z M54.8828125,92.0703125q0,2.67578125,0.05859375,5.341796875t0.13671875,5.341796875q1.15234375-0.234375,2.353515625-0.830078125t2.16796875-1.416015625t1.5625-1.865234375t0.595703125-2.197265625q0-1.03515625-0.517578125-1.85546875t-1.337890625-1.40625q-0.80078125-0.56640625-1.81640625-0.87890625q-0.8984375-0.2734375-1.7578125-0.2734375l-0.21484375,0z M69.3099609375,107.24609375q0-0.80078125,0.283203125-1.34765625t1.201171875-0.546875q0.3515625,0,0.87890625,0.107421875t0.60546875,0.537109375q0.1953125,1.15234375,0.21484375,2.5t0.13671875,2.5390625q0.44921875-0.87890625,1.15234375-1.89453125t1.6015625-1.875t1.953125-1.42578125t2.1484375-0.56640625q0.078125,0,0.29296875,0.05859375t0.400390625,0.166015625t0.224609375,0.244140625t-0.21484375,0.25390625q-0.078125,0.234375-0.33203125,0.283203125t-0.44921875,0.048828125q-0.1171875,0-0.37109375-0.09765625q-1.4453125,0.76171875-2.4609375,2.0703125t-1.66015625,2.900390625t-0.9375,3.359375t-0.29296875,3.447265625q0,0.83984375-0.380859375,1.015625t-1.220703125,0.17578125q-0.44921875,0-0.947265625-0.09765625t-0.693359375-0.625q-0.3515625-1.11328125-0.576171875-2.55859375t-0.341796875-2.978515625t-0.166015625-3.017578125t-0.048828125-2.67578125z M83.190234375,113.515625q0-1.3671875,0.302734375-3.22265625t1.025390625-3.515625t1.904296875-2.822265625t2.978515625-1.162109375q1.6796875,0,2.51953125,0.966796875t0.83984375,2.607421875q0,1.07421875-0.400390625,2.353515625t-1.142578125,2.421875t-1.7578125,1.904296875t-2.265625,0.76171875l-0.5078125-0.0390625q0,0.52734375,0.15625,1.416015625t0.458984375,1.767578125t0.78125,1.54296875t1.162109375,0.6640625q0.99609375,0,1.9140625-0.80078125t1.73828125-1.77734375t1.5234375-1.77734375t1.2890625-0.80078125q0.3125,0,0.64453125,0.09765625t0.37109375,0.546875q0,0.2734375-0.146484375,0.44921875t-0.263671875,0.390625q-0.60546875,1.03515625-1.318359375,1.97265625t-1.611328125,1.69921875t-1.962890625,1.201171875t-2.353515625,0.439453125q-1.6796875,0-2.79296875-0.595703125t-1.796875-1.6015625t-0.986328125-2.32421875t-0.302734375-2.763671875z M86.686328125,112.03125l0.546875,0.48828125q0.390625,0.3515625,0.78125,0.15625t0.703125-0.712890625t0.576171875-1.279296875t0.46875-1.5625t0.302734375-1.5625t0.09765625-1.26953125l0-0.6640625t-0.05859375-0.703125t-0.205078125-0.556640625t-0.458984375-0.283203125q-0.09765625-0.01953125-0.17578125-0.01953125q-0.6640625,0-1.1328125,0.83984375q-0.5078125,0.9375-0.8203125,2.275390625t-0.44921875,2.744140625t-0.17578125,2.109375z M99.5119140625,105.64453125q0-0.91796875,0.361328125-1.357421875t1.318359375-0.439453125q0.56640625,0,1.064453125,0.234375t0.498046875,0.99609375q0.078125,1.11328125,0.078125,2.333984375t0.21484375,2.314453125q0.48828125-0.80078125,1.103515625-1.6015625t1.357421875-1.42578125t1.62109375-1.005859375t1.9140625-0.380859375q1.40625,0,2.3828125,0.5859375t1.611328125,1.5234375t0.91796875,2.119140625t0.283203125,2.373046875q0,1.8359375-0.556640625,2.998046875t-1.474609375,1.826171875t-2.080078125,0.8984375t-2.333984375,0.234375q-1.03515625,0-1.93359375-0.400390625t-1.25-1.513671875q0-0.3125,0.458984375-0.390625t0.654296875-0.078125q0.64453125,0,0.95703125,0.3515625q0.234375,0.2734375,0.517578125,0.556640625t0.595703125,0.283203125q0.60546875,0,1.26953125-0.341796875t1.220703125-0.8984375t0.9375-1.318359375t0.380859375-1.5625q0-0.68359375-0.1171875-1.69921875t-0.400390625-1.953125t-0.78125-1.62109375t-1.259765625-0.68359375q-1.15234375,0-2.080078125,1.0546875t-1.54296875,2.5390625t-0.95703125,3.0859375t-0.341796875,2.67578125t0.13671875,2.71484375t0.283203125,3.408203125t0.283203125,3.408203125t0.13671875,2.71484375q0,0.2734375-0.224609375,0.439453125t-0.537109375,0.263671875t-0.634765625,0.1171875t-0.478515625,0.01953125q-0.52734375,0-1.103515625-0.1171875t-0.791015625-0.72265625q-0.2734375-0.95703125-0.5078125-2.724609375t-0.419921875-3.90625t-0.322265625-4.4921875t-0.234375-4.541015625t-0.146484375-4.00390625t-0.048828125-2.890625z M118.11875,119.55078125q0-0.1171875,0.078125-0.830078125t0.205078125-1.73828125t0.283203125-2.20703125t0.2734375-2.236328125t0.205078125-1.85546875t0.087890625-1.07421875q-0.15625-0.078125-0.380859375-0.224609375t-0.224609375-0.341796875q0-0.2734375,0.263671875-0.439453125t0.458984375-0.244140625q0.078125-0.99609375,0.1953125-2.7734375t0.361328125-3.837890625t0.68359375-4.1796875t1.162109375-3.84765625t1.73828125-2.822265625t2.5-1.09375t2.4609375,0.9375t1.591796875,2.44140625t0.9375,3.33984375t0.48828125,3.65234375t0.205078125,3.3984375t0.078125,2.5390625q0.0390625,0.60546875,0.29296875,0.810546875t0.556640625,0.283203125t0.546875,0.17578125t0.244140625,0.48828125q0,0.44921875-0.546875,0.625t-0.859375,0.21484375q0.1953125,2.44140625,0.537109375,4.8046875t0.908203125,4.765625q0.078125,0.44921875,0.21484375,0.908203125t0.13671875,0.888671875q0,0.3125-0.21484375,0.517578125t-0.556640625,0.322265625t-0.68359375,0.15625t-0.576171875,0.0390625q-0.87890625,0-1.484375-0.33203125t-0.80078125-1.26953125q-0.52734375-2.51953125-1.03515625-5.29296875q-0.4296875-2.40234375-0.4296875-4.66796875q0-0.3515625,0.01953125-0.703125q-1.640625,0-3.30078125,0.078125t-3.18359375,0.5859375q-0.0390625,0.52734375-0.1953125,1.9921875t-0.3515625,3.14453125t-0.400390625,3.212890625t-0.244140625,2.177734375q-0.0390625,0.2734375-0.400390625,0.517578125t-0.78125,0.263671875t-0.7421875-0.263671875t-0.322265625-1.005859375z M121.77109375,107.71484375q1.5234375-0.3515625,3.056640625-0.41015625t3.095703125-0.13671875q-0.078125-0.48828125-0.0390625-1.005859375t0.0390625-1.044921875q0-1.15234375-0.05859375-2.67578125t-0.17578125-3.0859375t-0.302734375-3.076171875t-0.419921875-2.6953125t-0.498046875-1.884765625t-0.576171875-0.703125q-0.60546875,0.0390625-1.142578125,1.044921875t-0.9765625,2.55859375t-0.80078125,3.4765625t-0.60546875,3.759765625t-0.400390625,3.41796875t-0.1953125,2.4609375z M137.7998046875,119.7265625q0.078125-4.08203125,0.341796875-8.14453125t0.458984375-8.14453125q0.0390625-1.5625,0.0390625-2.841796875t0.126953125-2.216796875t0.46875-1.435546875t1.142578125-0.498046875q0.68359375,0,1.03515625,0.1953125t0.537109375,0.498046875t0.224609375,0.68359375t0.0390625,0.771484375q0,0.56640625,0.0390625,1.123046875t0.0390625,1.123046875q0,4.12109375-0.224609375,8.22265625t-0.224609375,8.26171875q0,0.60546875,0.01953125,1.220703125t0.01953125,1.259765625q0,0.234375-0.21484375,0.390625t-0.537109375,0.263671875t-0.68359375,0.146484375t-0.595703125,0.0390625q-0.2734375,0-0.615234375-0.0390625t-0.6640625-0.166015625t-0.546875-0.302734375t-0.224609375-0.41015625z M138.8935546875,93.2421875q0-0.1953125,0.05859375-0.439453125t0.13671875-0.439453125q0.0390625-0.234375,0.1171875-0.80078125t0.283203125-1.103515625t0.56640625-0.95703125t1.025390625-0.419921875l0.37109375,0q0.3125,0.078125,0.634765625,0.1953125t0.322265625,0.56640625q0,0.1953125-0.01953125,0.37109375t-0.05859375,0.390625q-0.15625,1.15234375-0.302734375,1.81640625t-0.341796875,1.005859375t-0.498046875,0.439453125t-0.771484375,0.13671875q-0.15625,0-0.419921875-0.01953125t-0.5078125-0.09765625t-0.419921875-0.244140625t-0.17578125-0.400390625z"/><path fill="#" d=""/></svg>
